<?xml version="1.0" encoding="UTF-8"?> <svg xmlns="http://www.w3.org/2000/svg" viewBox="1950 2450 100 100" width="100" height="100"><path fill="#8c6868" stroke="#8c6868" fill-opacity="1" stroke-width="0.5" stroke-opacity="1" color="rgb(51, 51, 51)" fill-rule="evenodd" id="tSvg15df63e9eb0" title="Path 7" d="M 2000.231 2537.597 C 2000.2213333333334 2537.597 2000.2116666666666 2537.597 2000.202 2537.597 C 1998.5575204947147 2537.5996311697345 1997.2206043427748 2538.923623630434 1997.202 2540.568 C 1997.1886730833155 2542.2241565034237 1998.5178891604696 2543.578865565025 2000.174 2543.597 C 2000.1836666666666 2543.597 2000.1933333333334 2543.597 2000.203 2543.597 C 2000.993 2543.597 2001.738 2543.293 2002.304 2542.739 C 2002.8732858171372 2542.18311602117 2003.196626423704 2541.4226534824857 2003.202 2540.627C 2003.2158842068777 2538.970840527665 2001.887112310942 2537.615681074691 2000.231 2537.597Z M 2001.044 2453.601 C 2000.9616666666666 2453.6006666666667 2000.8793333333333 2453.6003333333333 2000.797 2453.6 C 1987.126 2453.6 1975.937 2464.577 1975.805 2478.18 C 1975.7966741356872 2479.0084438393064 1976.461555332647 2479.6867569401475 1977.29 2479.695 C 1977.295 2479.695 1977.3 2479.695 1977.305 2479.695 C 1978.1276121822705 2479.695052026563 1978.796773879806 2479.0325710522943 1978.805 2478.21 C 1978.921 2466.25 1988.766 2456.601 2000.797 2456.601 C 2000.8696666666667 2456.6013333333335 2000.9423333333334 2456.6016666666665 2001.015 2456.602 C 2013.146 2456.72 2022.92 2466.604 2022.803 2478.636 C 2022.722 2487.034 2017.701 2494.865 2010.0140000000001 2498.588 C 2000.559 2503.166 1998.513 2510.586 1998.46 2516.003 C 1998.421 2520.0286666666666 1998.382 2524.0543333333335 1998.343 2528.08 C 1998.3346741356872 2528.9084438393065 1998.999555332647 2529.5867569401476 1999.828 2529.595 C 1999.833 2529.595 1999.838 2529.595 1999.843 2529.595 C 2000.6656121822705 2529.5950520265633 2001.334773879806 2528.9325710522944 2001.343 2528.11 C 2001.382 2524.0843333333332 2001.421 2520.058666666667 2001.46 2516.033 C 2001.504 2511.464 2003.25 2505.197 2011.32 2501.2889999999998 C 2020.026 2497.074 2025.711 2488.194 2025.802 2478.666C 2025.936 2464.978 2014.829 2453.735 2001.044 2453.601Z"></path><defs> </defs></svg> 