<?xml version="1.0" encoding="UTF-8"?> <svg xmlns="http://www.w3.org/2000/svg" viewBox="1950 2450 100 100" width="100" height="100"><path fill="#8c6868" stroke="#8c6868" fill-opacity="1" stroke-width="0.5" stroke-opacity="1" color="rgb(51, 51, 51)" fill-rule="evenodd" id="tSvg1458c558f21" title="Path 1" d="M 2014.82 2490.86 C 2014.1965908404784 2490.85982813795 2013.5788799317932 2490.9786192871497 2013 2491.21 C 2013 2491.0533333333333 2013 2490.8966666666665 2013 2490.74 C 2012.9944967648776 2487.7765142513763 2010.5934857463908 2485.3755044375916 2007.63 2485.37 C 2007.5466666666666 2485.37 2007.4633333333334 2485.37 2007.38 2485.37 C 2006.513442652738 2485.3773761256 2005.6619126692756 2485.597125772517 2004.9 2486.01 C 2004.3837720473089 2483.5148391397897 2002.187999820511 2481.723991508624 1999.64 2481.72 C 1998.7258485346963 2481.7190677444046 1997.824512066737 2481.9349772732044 1997.01 2482.35 C 1997.01 2479.7633333333333 1997.01 2477.1766666666667 1997.01 2474.59 C 2000.1766666666667 2474.59 2003.3433333333332 2474.59 2006.51 2474.59 C 2007.3384271247462 2474.59 2008.01 2473.9184271247464 2008.01 2473.09 C 2008.01 2468.2266666666665 2008.01 2463.3633333333332 2008.01 2458.5 C 2008.0100184964413 2457.667651819968 2007.3323296829642 2456.9944509458546 2006.5 2457 C 1996.1666666666667 2457 1985.8333333333333 2457 1975.5 2457 C 1974.6715728752538 2457 1974 2457.671572875254 1974 2458.5 C 1974 2463.3633333333332 1974 2468.2266666666665 1974 2473.09 C 1974 2473.9184271247464 1974.6715728752538 2474.59 1975.5 2474.59 C 1979 2474.59 1982.5 2474.59 1986 2474.59 C 1986 2486.8233333333333 1986 2499.056666666667 1986 2511.29 C 1983.07 2508.89 1980.14 2506.49 1977.21 2504.09 C 1973.5531133045238 2501.0302456859426 1968.168551238779 2501.25550491607 1964.78 2504.61 C 1964.235346066422 2505.148299815145 1964.183617773875 2506.010438015732 1964.66 2506.61 C 1971.7733333333333 2515.7033333333334 1978.8866666666668 2524.7966666666666 1986 2533.89 C 1986 2538.0933333333332 1986 2542.2966666666666 1986 2546.5 C 1986 2547.654700538379 1987.25 2548.376388374866 1988.25 2547.7990381056766 C 1988.7141016151377 2547.5310889132456 1989 2547.0358983848623 1989 2546.5 C 1989 2542.1233333333334 1989 2537.746666666667 1989 2533.37 C 1988.9986466943647 2533.03627436131 1988.8860400468543 2532.712530250538 1988.68 2532.45 C 1981.76 2523.596666666667 1974.84 2514.7433333333333 1967.92 2505.89 C 1970.219896049308 2504.4256764376864 1973.204203579253 2504.6240903713547 1975.29 2506.38 C 1979.0433333333333 2509.4566666666665 1982.7966666666666 2512.5333333333333 1986.55 2515.61 C 1987.4435741972675 2516.3413401994358 1988.7937570591569 2515.831105379676 1988.9803291520434 2514.691577324958 C 1988.9928653645536 2514.615009786725 1988.9994420494468 2514.5375850064534 1989 2514.46 C 1989 2499.51 1989 2484.56 1989 2469.61 C 1989.0054786401852 2468.303361374439 1990.0633613754821 2467.24547888889 1991.37 2467.24 C 1991.4533333333334 2467.24 1991.5366666666666 2467.24 1991.62 2467.24 C 1992.9305756767628 2467.239941389275 1993.994493380385 2468.2994358905044 1994 2469.61 C 1994 2480.24 1994 2490.87 1994 2501.5 C 1994 2502.654700538379 1995.25 2503.376388374866 1996.25 2502.7990381056766 C 1996.7141016151377 2502.5310889132456 1997 2502.0358983848623 1997 2501.5 C 1997 2496.6666666666665 1997 2491.8333333333335 1997 2487 C 1997.1364773807516 2485.6658786019693 1998.2902576344636 2484.6700302232193 1999.63 2484.73 C 2000.9366386245179 2484.7354788888897 2001.9945213598148 2485.7933613744394 2002 2487.1 C 2002 2491.9 2002 2496.7 2002 2501.5 C 2002 2502.654700538379 2003.25 2503.376388374866 2004.25 2502.7990381056766 C 2004.7141016151377 2502.5310889132456 2005 2502.0358983848623 2005 2501.5 C 2005 2497.9166666666665 2005 2494.3333333333335 2005 2490.75 C 2005.0054786401852 2489.443361374439 2006.0633613754821 2488.38547888889 2007.37 2488.38 C 2007.4533333333334 2488.38 2007.5366666666666 2488.38 2007.62 2488.38 C 2008.9305756767628 2488.379941389275 2009.994493380385 2489.4394358905042 2010 2490.75 C 2010 2494.3333333333335 2010 2497.9166666666665 2010 2501.5 C 2010 2502.654700538379 2011.25 2503.376388374866 2012.25 2502.7990381056766 C 2012.7141016151377 2502.5310889132456 2013 2502.0358983848623 2013 2501.5 C 2013 2499.6666666666665 2013 2497.8333333333335 2013 2496 C 2012.851129841291 2494.887833877236 2013.6983606827441 2493.8916393862796 2014.82 2493.86 C 2016.0085353235795 2493.859794139641 2016.9781920297378 2494.811664748395 2017 2496 C 2017 2504.63 2017 2513.26 2017 2521.89 C 2017.0085818342286 2526.0182208513656 2015.366811016897 2529.9786329127196 2012.44 2532.89 C 2012.1460443201483 2533.1831670302568 2011.9867381503273 2533.5850530483426 2012 2534 C 2012 2537.8333333333335 2012 2541.6666666666665 2012 2545.5 C 2012 2546.654700538379 2013.25 2547.376388374866 2014.25 2546.7990381056766 C 2014.7141016151377 2546.5310889132456 2015 2546.0358983848623 2015 2545.5 C 2015 2541.8566666666666 2015 2538.213333333333 2015 2534.57 C 2018.224931042644 2531.1370301964503 2020.013931924677 2526.6001239690017 2020 2521.89 C 2020 2513.26 2020 2504.63 2020 2496C 2019.9780284447995 2493.15476816902 2017.665316661651 2490.8598727535723 2014.82 2490.86Z M 1991.63 2464.23 C 1991.5466666666666 2464.23 1991.4633333333334 2464.23 1991.38 2464.23 C 1988.4087080459103 2464.23 1986 2466.6387080459103 1986 2469.61 C 1986 2470.2766666666666 1986 2470.943333333333 1986 2471.61 C 1983 2471.61 1980 2471.61 1977 2471.61 C 1977 2467.74 1977 2463.87 1977 2460 C 1986.3333333333333 2460 1995.6666666666667 2460 2005 2460 C 2005 2463.8633333333332 2005 2467.7266666666665 2005 2471.59 C 2002.3333333333333 2471.59 1999.6666666666667 2471.59 1997 2471.59 C 1997 2470.923333333333 1997 2470.2566666666667 1997 2469.59C 1996.9890028431985 2466.630419789753 1994.589595565984 2464.2354812547446 1991.63 2464.23Z M 2029.5 2463 C 2024.5 2463 2019.5 2463 2014.5 2463 C 2013.3452994616207 2463 2012.6236116251337 2464.25 2013.2009618943234 2465.25 C 2013.4689110867544 2465.7141016151377 2013.9641016151377 2466 2014.5 2466 C 2019.5 2466 2024.5 2466 2029.5 2466 C 2030.6547005383793 2466 2031.3763883748663 2464.75 2030.7990381056766 2463.75C 2030.5310889132456 2463.2858983848623 2030.0358983848623 2463 2029.5 2463Z"></path><path fill="#8c6868" stroke="#8c6868" fill-opacity="1" stroke-width="0.5" stroke-opacity="1" color="rgb(51, 51, 51)" fill-rule="evenodd" id="tSvgb67b953179" title="Path 2" d="M 2014.67 2472 C 2013.8252083278355 2471.2128149112345 2012.4450606776882 2471.635338042374 2012.1857342294193 2472.7605416357565 C 2012.073834449175 2473.2460687991834 2012.2103283660922 2473.755471032204 2012.55 2474.12 C 2017.0066666666667 2478.5866666666666 2021.4633333333334 2483.0533333333333 2025.92 2487.52 C 2026.850099105038 2488.2042872117327 2028.1721736814789 2487.625104902621 2028.2997342378053 2486.4774718437548 C 2028.3424570404914 2486.093104589942 2028.2350740812733 2485.707088912184 2028 2485.4C 2023.5566666666666 2480.9333333333334 2019.1133333333332 2476.4666666666667 2014.67 2472Z M 1971.06 2476.94 C 1970.474364906127 2476.355093242 1969.525635093873 2476.355093242 1968.94 2476.94 C 1965.6066666666666 2480.2733333333335 1962.2733333333333 2483.6066666666666 1958.94 2486.94 C 1958.0952083278355 2487.7271850887655 1958.419366387777 2489.1336895808618 1959.5234845082107 2489.471708085479 C 1960.0722437194975 2489.6397071107294 1960.6687600952916 2489.479871029509 1961.06 2489.06 C 1964.3933333333334 2485.7266666666665 1967.7266666666667 2482.3933333333334 1971.06 2479.06C 1971.6449067547833 2478.474364906682 1971.6449067547833 2477.525635093318 1971.06 2476.94Z"></path><defs> </defs></svg> 