<?xml version="1.0" encoding="UTF-8"?> <svg xmlns="http://www.w3.org/2000/svg" viewBox="1950 2450 100 100" width="100" height="100"><path fill="#8c6868" stroke="#8c6868" fill-opacity="1" stroke-width="0.5" stroke-opacity="1" color="rgb(51, 51, 51)" fill-rule="evenodd" id="tSvg5a49ff374d" title="Path 3" d="M 2014.978 2518.072 C 2014.1495728752539 2518.072 2013.478 2518.743572875254 2013.478 2519.572 C 2013.478 2524.142 2013.478 2528.712 2013.478 2533.282 C 1997.1573333333333 2533.282 1980.8366666666666 2533.282 1964.516 2533.282 C 1964.516 2511.749333333333 1964.516 2490.2166666666667 1964.516 2468.684 C 1980.8366666666666 2468.684 1997.1573333333333 2468.684 2013.478 2468.684 C 2013.478 2472.484 2013.478 2476.284 2013.478 2480.084 C 2013.478000015011 2481.2387005383794 2014.7280000243932 2481.960388358248 2015.7280000168876 2481.3830380760583 C 2016.1921016164754 2481.1150888845605 2016.4779999930333 2480.6198983709287 2016.478 2480.084 C 2016.478 2475.784 2016.478 2471.484 2016.478 2467.184 C 2016.478 2466.355572875254 2015.8064271247463 2465.684 2014.978 2465.684 C 1997.6573333333333 2465.684 1980.3366666666666 2465.684 1963.016 2465.684 C 1962.1875728752539 2465.684 1961.516 2466.355572875254 1961.516 2467.184 C 1961.516 2489.7166666666667 1961.516 2512.249333333333 1961.516 2534.782 C 1961.516 2535.6104271247464 1962.1875728752539 2536.282 1963.016 2536.282 C 1980.3366666666666 2536.282 1997.6573333333333 2536.282 2014.978 2536.282 C 2015.8064271247463 2536.282 2016.478 2535.6104271247464 2016.478 2534.782 C 2016.478 2529.712 2016.478 2524.642 2016.478 2519.572C 2016.478 2518.743572875254 2015.8064271247463 2518.072 2014.978 2518.072Z"></path><path fill="#8c6868" stroke="#8c6868" fill-opacity="1" stroke-width="0.5" stroke-opacity="1" color="rgb(51, 51, 51)" fill-rule="evenodd" id="tSvgc4914094ce" title="Path 4" d="M 2042.455 2469.881 C 2042.3748997208395 2469.491158595638 2042.1432549170413 2469.1490868443752 2041.811 2468.93 C 2039.3006666666668 2467.2746666666667 2036.7903333333334 2465.6193333333335 2034.28 2463.964 C 2033.587813128279 2463.5075577257617 2032.6566074717389 2463.699263364048 2032.201 2464.392 C 2030.3633333333332 2467.184333333333 2028.5256666666667 2469.9766666666665 2026.688 2472.769 C 2026.6876666666667 2472.769333333333 2026.6873333333333 2472.7696666666666 2026.687 2472.77 C 2016.956 2487.5246666666667 2007.225 2502.2793333333334 1997.494 2517.034 C 1997.468 2517.073 1997.451 2517.116 1997.43 2517.156 C 1997.407 2517.198 1997.382 2517.238 1997.363 2517.282 C 1997.3331418239181 2517.3570503562 1997.3090715295575 2517.4342758838466 1997.291 2517.513 C 1997.287 2517.53 1997.28 2517.544 1997.276 2517.561 C 1997.2756666666667 2517.563 1997.2753333333333 2517.565 1997.275 2517.567 C 1997.2738973142511 2517.5716440703563 1997.2728970715796 2517.5763118694645 1997.272 2517.581 C 1996.4766666666667 2521.51 1995.6813333333332 2525.439 1994.886 2529.368 C 1994.6548060417338 2530.4985332820443 1995.7341479951415 2531.455391385959 1996.8288155163486 2531.090344585997 C 1996.9639438203105 2531.045282360262 1997.0919593704932 2530.9811896161127 1997.209 2530.9 C 2000.5143333333333 2528.617333333333 2003.8196666666668 2526.3346666666666 2007.125 2524.052 C 2007.158 2524.029 2007.184 2524.001 2007.215 2523.976 C 2007.246 2523.951 2007.277 2523.927 2007.306 2523.899 C 2007.379971975809 2523.829207878216 2007.4463423230925 2523.7517758065424 2007.504 2523.668 C 2007.51 2523.659 2007.519 2523.6530000000002 2007.525 2523.6440000000002 C 2007.528 2523.6393333333335 2007.531 2523.634666666667 2007.534 2523.63 C 2007.5363333333332 2523.626333333333 2007.5386666666666 2523.6226666666666 2007.541 2523.619 C 2017.2636666666667 2508.8726666666666 2026.9863333333333 2494.126333333333 2036.709 2479.38 C 2036.7096666666666 2479.3793333333333 2036.7103333333334 2479.3786666666665 2036.711 2479.378 C 2038.5529999999999 2476.588 2040.395 2473.798 2042.237 2471.008C 2042.4562193938364 2470.676096783523 2042.5346346074548 2470.270711710162 2042.455 2469.881Z M 1999.776 2520.334 C 2001.0473333333334 2521.172 2002.3186666666666 2522.01 2003.59 2522.848 C 2001.9146666666666 2524.005 2000.2393333333334 2525.162 1998.564 2526.319C 1998.968 2524.324 1999.372 2522.329 1999.776 2520.334Z M 2005.846 2520.741 C 2004.1723333333334 2519.638 2002.4986666666666 2518.535 2000.825 2517.432 C 2010.0056666666667 2503.5113333333334 2019.1863333333333 2489.5906666666665 2028.367 2475.67 C 2030.0383333333334 2476.7723333333333 2031.7096666666666 2477.8746666666666 2033.381 2478.977C 2024.2026666666666 2492.8983333333335 2015.0243333333333 2506.8196666666668 2005.846 2520.741Z M 2035.033 2476.474 C 2033.3613333333333 2475.371 2031.6896666666667 2474.268 2030.018 2473.165 C 2031.306 2471.208 2032.594 2469.251 2033.882 2467.294 C 2035.5566666666666 2468.3983333333335 2037.2313333333334 2469.5026666666668 2038.906 2470.607C 2037.615 2472.5626666666667 2036.324 2474.5183333333334 2035.033 2476.474Z M 1998.741 2484.636 C 1999.8957005383793 2484.636 2000.6173883748663 2483.386 2000.0400381056766 2482.386 C 1999.7720889132456 2481.9218983848623 1999.2768983848623 2481.636 1998.741 2481.636 C 1989.439 2481.636 1980.137 2481.636 1970.835 2481.636 C 1969.6802994616207 2481.636 1968.9586116251337 2482.886 1969.5359618943232 2483.886 C 1969.8039110867544 2484.3501016151376 1970.2991016151377 2484.636 1970.835 2484.636C 1980.137 2484.636 1989.439 2484.636 1998.741 2484.636Z M 1971.184 2496.993 C 1980.4836666666667 2496.993 1989.7833333333333 2496.993 1999.083 2496.993 C 2000.2377005383792 2496.993 2000.9593883748662 2495.743 2000.3820381056767 2494.743 C 2000.1140889132455 2494.2788983848623 1999.6188983848622 2493.993 1999.083 2493.993 C 1989.7833333333333 2493.993 1980.4836666666667 2493.993 1971.184 2493.993 C 1970.0292994616207 2493.993 1969.3076116251336 2495.243 1969.8849618943234 2496.243C 1970.1529110867546 2496.7071016151376 1970.6481016151376 2496.993 1971.184 2496.993Z"></path><defs> </defs></svg> 