<?xml version="1.0" encoding="UTF-8"?> <svg xmlns="http://www.w3.org/2000/svg" viewBox="1950 2450 100 100" width="100" height="100"><path fill="#8c6868" stroke="#8c6868" fill-opacity="1" stroke-width="0.5" stroke-opacity="1" color="rgb(51, 51, 51)" fill-rule="evenodd" id="tSvga75aa32e8e" title="Path 5" d="M 1989.478 2497.03 C 1988.256 2497.834 1986.871 2498.745 1985.338 2499.951 C 1985.156 2500.083 1980.876 2503.213 1979.125 2506.134 C 1977.365 2509.07 1976.793 2513.886 1976.77 2514.09 C 1976.6664490785533 2514.9812392689246 1977.3637660446116 2515.763207105651 1978.261 2515.762 C 1984.524 2515.762 1990.787 2515.762 1997.05 2515.762 C 1998.2047005383793 2515.762 1998.9263883748663 2514.512 1998.3490381056768 2513.512 C 1998.0810889132456 2513.047898384862 1997.5858983848623 2512.762 1997.05 2512.762 C 1991.3736666666666 2512.762 1985.6973333333333 2512.762 1980.021 2512.762 C 1980.307 2511.274 1980.837 2509.116 1981.7 2507.677 C 1982.891 2505.689 1986.005 2503.177 1987.149 2502.344 C 1988.628 2501.182 1989.957 2500.307 1991.129 2499.536 C 1994.197 2497.517 1996.621 2495.922 1996.621 2491.835 C 1996.621 2486.46 1992.247 2482.086 1986.872 2482.086 C 1981.494 2482.086 1977.119 2486.46 1977.119 2491.835 C 1977.119 2492.989700538379 1978.369 2493.711388374866 1979.369 2493.1340381056766 C 1979.8331016151378 2492.8660889132457 1980.119 2492.3708983848624 1980.119 2491.835 C 1980.119 2488.114 1983.148 2485.086 1986.872 2485.086 C 1990.5975401588898 2485.0904112684148 1993.616591725438 2488.109459837566 1993.621 2491.835C 1993.62 2494.193 1992.624 2494.96 1989.478 2497.03Z M 2015.4569999999999 2515.938 C 2016.285427124746 2515.938 2016.9569999999999 2515.2664271247463 2016.9569999999999 2514.438 C 2016.9569999999999 2512.068333333333 2016.9569999999999 2509.6986666666667 2016.9569999999999 2507.329 C 2018.4296666666667 2507.329 2019.9023333333334 2507.329 2021.375 2507.329 C 2022.5297005383793 2507.329 2023.2513883748663 2506.079 2022.6740381056766 2505.079 C 2022.4060889132456 2504.614898384862 2021.9108983848623 2504.329 2021.375 2504.329 C 2019.9023333333334 2504.329 2018.4296666666667 2504.329 2016.9569999999999 2504.329 C 2016.9569999999999 2497.4736666666668 2016.9569999999999 2490.6183333333333 2016.9569999999999 2483.763 C 2016.956323193064 2482.60829965997 2015.7059004034488 2481.8873446135262 2014.7062389786922 2482.4652809155414 C 2014.500490326795 2482.584230804051 2014.3259502303515 2482.7503667817564 2014.197 2482.95 C 2009.443 2490.3053333333332 2004.689 2497.6606666666667 1999.935 2505.016 C 1999.3060701217803 2505.982554373241 1999.9593147486758 2507.2674874226077 2001.1108403291512 2507.3288794877244 C 2001.1385353611493 2507.3303560117693 2001.1662657082982 2507.331063122298 2001.194 2507.331 C 2005.448 2507.331 2009.702 2507.331 2013.956 2507.331 C 2013.956 2509.7006666666666 2013.956 2512.070333333333 2013.956 2514.44C 2013.9576545650618 2515.267832628944 2014.62916571842 2515.938037021874 2015.4569999999999 2515.938Z M 2003.951 2504.329 C 2007.2863333333332 2499.1683333333335 2010.6216666666667 2494.007666666667 2013.957 2488.847 C 2013.957 2494.007666666667 2013.957 2499.1683333333335 2013.957 2504.329C 2010.6216666666667 2504.329 2007.2863333333332 2504.329 2003.951 2504.329Z"></path><path fill="#8c6868" stroke="#8c6868" fill-opacity="1" stroke-width="0.5" stroke-opacity="1" color="rgb(51, 51, 51)" fill-rule="evenodd" id="tSvg123a6162fa2" title="Path 6" d="M 2036.577 2496.663 C 2038.9563333333333 2498.65 2041.3356666666666 2500.637 2043.715 2502.624 C 2045.7436666666667 2500.2176666666664 2047.7723333333333 2497.8113333333336 2049.801 2495.405 C 2049.0363333333335 2494.760333333333 2048.2716666666665 2494.1156666666666 2047.507 2493.471 C 2046.6213333333333 2494.521333333333 2045.7356666666667 2495.5716666666667 2044.85 2496.622 C 2043.113 2472.517 2022.959 2453.432 1998.417 2453.432 C 1972.739 2453.432 1951.849 2474.321 1951.849 2499.998 C 1951.849 2525.675 1972.74 2546.564 1998.417 2546.564 C 2014.867 2546.564 2029.775 2538.15 2038.298 2524.056 C 2037.4423333333334 2523.5383333333334 2036.5866666666666 2523.020666666667 2035.731 2522.503 C 2027.757 2535.691 2013.808 2543.564 1998.418 2543.564 C 1974.395 2543.564 1954.85 2524.02 1954.85 2499.998 C 1954.85 2475.976 1974.395 2456.432 1998.418 2456.432 C 2021.496 2456.432 2040.431 2474.471 2041.886 2497.187 C 2040.7573333333332 2496.2446666666665 2039.6286666666667 2495.3023333333335 2038.5 2494.36C 2037.859 2495.1276666666668 2037.218 2495.8953333333334 2036.577 2496.663Z"></path><defs> </defs></svg> 